# AST/ASF file generated using VICON BodyLanguage
# -----------------------------------------------
:version 1.10
:name VICON
:units
  mass 1.0
  length 0.45
  angle deg
:documentation
   .ast/.asf automatically generated from VICON data using
   VICON BodyBuilder and BodyLanguage model FoxedUp or BRILLIANT.MOD
:root
   order TX TY TZ RX RY RZ
   axis XYZ
   position 0 0 0  
   orientation 0 -0 0 
:bonedata
  begin
     id 1 
     name lhipjoint
     direction 0.515797 -0.759363 0.396637 
     length 2.47888 
     axis 0 -0 0  XYZ
  end
  begin
     id 2 
     name lfemur
     direction 0.34202 -0.939693 0  
     length 6.81885  
     axis 0 -0 20  XYZ
    dof rx ry rz
    limits (-160.0 20.0)
           (-70.0 70.0)
           (-60.0 70.0)
  end
  begin
     id 3 
     name ltibia
     direction 0.342037 -0.939687 0   
     length 7.89258   
     axis 0 -0 20   XYZ
    dof rx
    limits (-10.0 170.0)
  end
  begin
     id 4 
     name lfoot
     direction 0.173497 -0.476678 0.861787   
     length 2.51543   
     axis -90 -1.13533e-015 20   XYZ
    dof rx rz
    limits (-45.0 90.0)
           (-70.0 20.0)
  end
  begin
     id 5 
     name ltoes
     direction 1.53564e-011 -4.21897e-011 1   
     length 1.21388   
     axis -90 -1.13533e-015 20   XYZ
    dof rx
    limits (-90.0 20.0)
  end
  begin
     id 6 
     name rhipjoint
     direction -0.489454 -0.772941 0.403729   
     length 2.43534  
     axis 0 -0 0  XYZ 
  end
  begin
     id 7 
     name rfemur
     direction -0.34202 -0.939693 0   
     length 7.10357   
     axis 0 -0 -20   XYZ
    dof rx ry rz
    limits (-160.0 20.0)
           (-70.0 70.0)
           (-70.0 60.0)
  end
  begin
     id 8 
     name rtibia
     direction -0.34202 -0.939693 0   
     length 9.16127   
     axis 0 -0 -20   XYZ
    dof rx
    limits (-10.0 170.0)
 end
 begin
     id 9 
     name rfoot
     direction -0.270974 -0.748671 0.605033   
     length 1.74894  
     axis -90 1.13533e-015 -20   XYZ
    dof rx rz
    limits (-45.0 90.0)
           (-20.0 70.0)
  end
  begin
     id 10 
     name rtoes
     direction -1.53557e-011 -4.21759e-011 1   
     length 0.787585   
     axis -90 1.13533e-015 -20   XYZ
    dof rx
    limits (-90.0 20.0)
  end
  begin
     id 11 
     name lowerback
     direction -0.0140249 0.999561 0.0260968   
     length 2.16963   
     axis 0 -0 0   XYZ
    dof rx ry rz
    limits (-20.0 45.0)
           (-30.0 30.0)
           (-30.0 30.0)
  end
  begin
     id 12 
     name upperback
     direction 0.00860018 0.999959 -0.002711   
     length 2.1726   
     axis 0 -0 0   XYZ
    dof rx ry rz
    limits (-20.0 45.0)
           (-30.0 30.0)
           (-30.0 30.0)
  end
  begin
     id 13 
     name thorax
     direction 0.015211 0.999782 -0.0143191   
     length 2.17061   
     axis 0 -0 0   XYZ
    dof rx ry rz
    limits (-20.0 45.0)
           (-30.0 30.0)
           (-30.0 30.0)
  end
  begin
     id 14 
     name lowerneck
     direction -0.0140143 0.999447 0.030145   
     length 2.26749   
     axis 0 -0 0   XYZ
    dof rx ry rz
    limits (-20.0 45.0)
           (-30.0 30.0)
           (-30.0 30.0)
  end
  begin
     id 15 
     name upperneck
     direction 0.118062 0.961438 -0.248392   
     length 2.22728   
     axis 0 -0 0   XYZ
    dof rx ry rz
    limits (-20.0 45.0)
           (-30.0 30.0)
           (-30.0 30.0)
  end
  begin
     id 16
     name head
     direction 0.0431885 0.9954 -0.085514  
     length 2.28786  
     axis 0 -0 0   XYZ
    dof rx ry rz
    limits (-20.0 45.0)
           (-30.0 30.0)
           (-30.0 30.0)
  end
  begin
     id 17 
     name lclavicle
     direction 0.912126 0.409548 0.0172323  
     length 4.31571  
     axis 0 -0 0   XYZ
    dof ry rz
    limits (-20.0 10.0)
           (0.0 20.0)
  end
  begin
     id 18 
     name lhumerus
     direction 1 -4.48977e-011 1.93091e-027   
     length 5.13658   
     axis 180 -30 -90   XYZ
    dof rx ry rz
    limits (-60.0 90.0)
           (-90.0 90.0)
           (-90.0 90.0)
  end
  begin
     id 19
     name lradius
     direction 1 -4.48916e-011 6.84018e-027   
     length 3.22473   
     axis 180 -30 -90   XYZ
    dof rx
    limits (-10.0 170.0)
  end
  begin
     id 20
     name lwrist
     direction 1 -4.48987e-011 7.01981e-027   
     length 1.61236   
     axis -4.37994e-015 90 90   XYZ
    dof ry
    limits (-180.0 0.0)
 end
  begin
     id 21 
     name lhand
     direction 1 -4.49037e-011 1.40335e-026   
     length 0.936406   
     axis -8.96029e-015 90 90   XYZ
    dof rx rz
    limits (-90.0 90.0)
           (-45.0 45.0)
  end
  begin
     id 22 
     name lfingers
     direction 1 -4.48886e-011 2.8104e-026   
     length 0.754955   
     axis -1.79203e-014 90 90   XYZ
    dof rx
    limits (0.0 90.0)
  end
  begin
     id 23
     name lthumb
     direction 0.707107 -6.34937e-011 0.707107   
     length 1.08397   
     axis -90 45 -4.48555e-014   XYZ
    dof rx rz
    limits (-45.0 45.0)
           (-45.0 45.0)
  end
  begin
     id 24 
     name rclavicle
     direction -0.947962 0.317997 0.0156638   
     length 4.86918  
     axis 0 -0 0   XYZ 
    dof ry rz
    limits (-10.0 20.0)
           (-20.0 0.0)
  end
  begin
     id 25 
     name rhumerus
     direction -1 -4.48951e-011 2.80534e-018  
     length 5.60911   
     axis 180 30 90   XYZ
    dof rx ry rz
    limits (-90.0 60.0)
           (-90.0 90.0)
           (-90.0 90.0)
  end
  begin
     id 26 
     name rradius
     direction -1 -4.4898e-011 2.11315e-027   
     length 3.38704   
     axis 180 30 90   XYZ
    dof rx
    limits (-10.0 170.0)
  end
  begin
     id 27 
     name rwrist
     direction -1 -4.48933e-011 7.02314e-027   
     length 1.69352   
     axis -4.37994e-015 -90 -90   XYZ
    dof ry
    limits (-180.0 0.0)
  end
  begin
     id 28
     name rhand
     direction -1 -4.48937e-011 1.40458e-026   
     length 0.755878   
     axis -8.96029e-015 -90 -90   XYZ
    dof rx rz
    limits (-90.0 90.0)
           (-45.0 45.0)
  end
  begin
     id 29
     name rfingers
     direction -1 -4.4901e-011 2.80737e-026   
     length 0.609409   
     axis -1.79203e-014 -90 -90   XYZ
    dof rx
    limits (0.0 90.0)
  end
  begin
     id 30
     name rthumb
     direction -0.707107 -6.34968e-011 0.707107   
     length 0.874992   
     axis -90 -45 4.48555e-014   XYZ
    dof rx rz
    limits (-45.0 45.0)
           (-45.0 45.0)
  end
:hierarchy
  begin
    root lhipjoint rhipjoint lowerback
    lhipjoint lfemur
    lfemur ltibia
    ltibia lfoot
    lfoot ltoes
    rhipjoint rfemur
    rfemur rtibia
    rtibia rfoot
    rfoot rtoes
    lowerback upperback
    upperback thorax
    thorax lowerneck lclavicle rclavicle
    lowerneck upperneck
    upperneck head
    lclavicle lhumerus
    lhumerus lradius
    lradius lwrist
    lwrist lhand lthumb
    lhand lfingers
    rclavicle rhumerus
    rhumerus rradius
    rradius rwrist
    rwrist rhand rthumb
    rhand rfingers
  end

#!OML:ASF C:\ViconDB\ViconDB\414\Spring2016\041811\Spring2016.ASF
:FULLY-SPECIFIED
:DEGREES
139
root 9.96265 17.5572 9.52408 -166.909 -8.44591 177.16
lowerback 7.081 -3.22724 -4.32453
upperback 0.553842 -4.66977 0.418406
thorax -3.00992 -2.28465 3.28605
lowerneck -14.464 3.09679 -6.98377
upperneck 21.0843 4.41359 10.8175
head 8.50851 2.98797 5.40617
rclavicle 8.21975e-014 5.56597e-015
rhumerus -74.9807 3.05337 -89.4018
rradius 82.851
rwrist 2.73208
rhand -35.3538 -14.8508
rfingers 7.12502
rthumb -8.48622 -44.6603
lclavicle 8.21975e-014 5.56597e-015
lhumerus -32.4739 -30.0316 92.9747
lradius 97.3857
lwrist -13.6227
lhand -38.1844 13.7317
lfingers 7.12502
lthumb -11.2171 43.4118
rfemur -52.9749 -11.9563 24.8972
rtibia 69.6061
rfoot -168.035 7.7202
rtoes -6.91603
lfemur 0.771761 -12.2925 -24.4556
ltibia 32.6833
lfoot -10.7462 -5.2339
ltoes -25.6379
140
root 9.93885 17.6238 9.086 -166.884 -8.28601 177.443
lowerback 6.68222 -3.31856 -4.14853
upperback 0.388125 -4.74359 0.668667
thorax -2.94507 -2.31711 3.43064
lowerneck -14.8363 3.30568 -6.75785
upperneck 21.6811 4.72124 10.6231
head 8.7612 3.144 5.37875
rclavicle 4.94228e-014 -7.7526e-015
rhumerus -76.4298 2.67675 -89.12
rradius 83.3975
rwrist 3.25565
rhand -35.3196 -14.5488
rfingers 7.12502
rthumb -8.45319 -44.3596
lclavicle 4.94228e-014 -7.7526e-015
lhumerus -33.2885 -31.0328 93.1762
lradius 100.026
lwrist -14.0399
lhand -38.3612 13.0195
lfingers 7.12502
lthumb -11.3877 42.6903
rfemur -52.3615 -11.3869 25.412
rtibia 65.3325
rfoot -167.212 9.16393
rtoes -6.98295
lfemur 2.45724 -13.0139 -24.3592
ltibia 31.2164
lfoot -6.9001 -4.22058
ltoes -25.1816
141
root 9.9139 17.7031 8.63398 -166.88 -7.98382 177.926
lowerback 6.19329 -3.35363 -3.77497
upperback 0.242666 -4.72796 0.937439
thorax -2.83054 -2.31017 3.46993
lowerneck -15.1798 3.53675 -6.44915
upperneck 22.2119 5.05297 10.3549
head 8.9923 3.30599 5.31109
rclavicle -1.6524e-014 9.0447e-015
rhumerus -77.5632 2.26586 -88.8379
rradius 83.8252
rwrist 3.48061
rhand -35.3063 -14.425
rfingers 7.12502
rthumb -8.44036 -44.2364
lclavicle -1.6524e-014 9.0447e-015
lhumerus -34.3433 -31.8749 93.4186
lradius 102.374
lwrist -14.714
lhand -38.6876 12.3952
lfingers 7.12502
lthumb -11.7024 42.0483
rfemur -51.4684 -10.747 26.1428
rtibia 61.0762
rfoot -166.901 10.0814
rtoes -6.23151
lfemur 3.89433 -13.3903 -24.0048
ltibia 29.8697
lfoot -2.38174 -2.90062
ltoes -24.0994
142
root 9.89625 17.7905 8.1791 -166.96 -7.68997 178.221
lowerback 5.8725 -3.3489 -3.57648
upperback 0.0911306 -4.6879 1.0929
thorax -2.81388 -2.28793 3.50054
lowerneck -15.4466 3.67367 -6.16633
upperneck 22.7332 5.22975 10.2636
head 9.21764 3.41659 5.29313
rclavicle 6.25054e-014 -1.50082e-014
rhumerus -78.5019 1.69093 -88.5837
rradius 84.1911
rwrist 3.45296
rhand -35.2717 -14.1977
rfingers 7.12502
rthumb -8.40696 -44.0104
lclavicle 6.25054e-014 -1.50082e-014
lhumerus -35.6517 -32.6776 93.8118
lradius 104.37
lwrist -15.092
lhand -38.906 11.592
lfingers 7.12502
lthumb -11.913 41.233
rfemur -50.3192 -10.2789 26.5718
rtibia 57.2049
rfoot -166.635 10.6478
rtoes -6.35488
lfemur 5.0766 -13.5332 -23.7809
ltibia 28.8293
lfoot 2.66648 -1.36952
ltoes -22.3622
143
root 9.87696 17.8679 7.72003 -166.994 -7.32248 178.347
lowerback 5.43034 -3.31418 -3.50879
upperback -0.000325488 -4.61616 1.20796
thorax -2.6627 -2.25367 3.54897
lowerneck -15.871 3.7967 -6.12459
upperneck 23.267 5.40448 10.3727
head 9.46428 3.52854 5.39491
rclavicle -7.29602e-014 1.60643e-014
rhumerus -79.036 1.10802 -88.3828
rradius 84.4628
rwrist 3.17632
rhand -35.6049 -14.1479
rfingers 7.12502
rthumb -8.72855 -43.9474
lclavicle -7.29602e-014 1.60643e-014
lhumerus -36.902 -33.2042 94.1719
lradius 106.002
lwrist -15.1711
lhand -39.176 10.5729
lfingers 7.12502
lthumb -12.1734 40.1987
rfemur -49.158 -9.85655 26.8053
rtibia 53.8466
rfoot -165.84 10.8564
rtoes -5.76673
lfemur 5.87404 -13.2485 -23.5868
ltibia 28.1921
lfoot 7.9643 -0.1503
ltoes -18.0044
144
root 9.86186 17.9282 7.27003 -167.008 -6.85743 178.273
lowerback 5.07076 -3.20579 -3.66642
upperback -0.137033 -4.46567 1.24574
thorax -2.60043 -2.17439 3.6471
lowerneck -16.178 3.82988 -6.01099
upperneck 23.7565 5.4613 10.3438
head 9.69458 3.57441 5.41801
rclavicle -3.04389e-016 -3.52843e-015
rhumerus -79.4004 0.431533 -88.1785
rradius 84.8774
rwrist 2.62901
rhand -35.7844 -14.5628
rfingers 7.12502
rthumb -8.90176 -44.355
lclavicle -3.04389e-016 -3.52843e-015
lhumerus -38.3037 -33.4284 94.8716
lradius 107.072
lwrist -15.3261
lhand -39.223 9.37681
lfingers 7.12502
lthumb -12.2187 38.9999
rfemur -48.0861 -9.44203 26.7793
rtibia 51.2241
rfoot -165.198 10.8926
rtoes -6.06709
lfemur 6.29627 -12.5498 -23.486
ltibia 28.1593
lfoot 12.7911 0.462031
ltoes -16.1718
145
root 9.84419 17.9623 6.83099 -167.091 -6.36773 178.064
lowerback 4.87743 -3.07373 -3.92648
upperback -0.291117 -4.2965 1.25685
thorax -2.64658 -2.08151 3.78707
lowerneck -16.4125 3.86725 -6.05092
upperneck 24.1824 5.54784 10.3741
head 9.87965 3.62586 5.48452
rclavicle -3.85145e-016 -4.12478e-015
rhumerus -79.4968 -0.246854 -87.9378
rradius 85.1595
rwrist 2.69644
rhand -35.9688 -14.6321
rfingers 7.12502
rthumb -9.07967 -44.4167
lclavicle -3.85145e-016 -4.12478e-015
lhumerus -39.7848 -33.5008 95.5821
lradius 107.864
lwrist -15.1978
lhand -39.0573 8.26778
lfingers 7.12502
lthumb -12.0589 37.9003
rfemur -47.0428 -9.13823 26.6335
rtibia 49.3796
rfoot -164.956 10.6122
rtoes -6.31703
lfemur 6.40243 -11.956 -23.5492
ltibia 28.9433
lfoot 17.0465 1.06467
ltoes -14.4559
146
root 9.82109 17.9805 6.3926 -167.282 -5.74224 177.713
lowerback 4.59662 -2.82754 -4.26036
upperback -0.24735 -3.97807 1.13464
thorax -2.45957 -1.92466 3.80986
lowerneck -16.8095 3.77788 -6.14878
upperneck 24.452 5.41762 10.5861
head 10.0542 3.58995 5.60031
rclavicle 1.36664e-015 -8.34896e-015
rhumerus -79.2066 -1.22121 -87.7005
rradius 85.6534
rwrist 2.45488
rhand -35.8831 -14.2209
rfingers 7.12502
rthumb -8.99697 -44.0091
lclavicle 1.36664e-015 -8.34896e-015
lhumerus -41.0842 -33.5046 96.313
lradius 108.101
lwrist -14.9347
lhand -38.8403 7.74945
lfingers 7.12502
lthumb -11.8497 37.3942
rfemur -45.9628 -9.14366 26.3633
rtibia 48.3527
rfoot -164.638 10.1655
rtoes -6.02547
lfemur 6.18348 -11.2095 -23.8577
ltibia 30.5445
lfoot 21.1695 1.39884
ltoes -9.48956
